<svg xmlns="http://www.w3.org/2000/svg" xmlns:xlink="http://www.w3.org/1999/xlink" width="41" height="37" viewBox="0 0 41 37">
    <defs>
        <path id="prefix__a" d="M0 0L14.611 0 14.611 15.805 0 15.805z"/>
    </defs>
    <g fill="none" fill-rule="evenodd" transform="translate(12.621 10.5)">
        <path fill="#ABADAD" d="M8.485 12.29c-1.167 0-2.113-.794-2.113-1.773 0-.979.946-1.772 2.113-1.772s2.113.793 2.113 1.772c0 .98-.946 1.773-2.113 1.773zM5.304 3.68c0-1.471 1.428-2.668 3.18-2.668 1.754 0 3.182 1.197 3.182 2.669v1.517H5.304V3.681zm9.247 1.518h-1.679V3.681C12.872 1.65 10.904 0 8.485 0c-2.42 0-4.388 1.651-4.388 3.68v1.518H2.42c-.667 0-1.207.454-1.207 1.013v8.777c0 .558.54 1.012 1.207 1.012H14.55c.666 0 1.207-.454 1.207-1.012V6.21c0-.56-.541-1.013-1.207-1.013z"/>
    </g>
</svg>
