<?xml version="1.0" encoding="UTF-8"?>
<svg width="286px" height="132px" viewBox="0 0 286 132" version="1.1" xmlns="http://www.w3.org/2000/svg" xmlns:xlink="http://www.w3.org/1999/xlink">
    <!-- Generator: Sketch 64 (93537) - https://sketch.com -->
    <title>Group</title>
    <desc>Created with Sketch.</desc>
    <g id="Official-Web-Design" stroke="none" stroke-width="1" fill="none" fill-rule="evenodd">
        <g id="asset-trax-pending-approval" transform="translate(-617.000000, -219.000000)">
            <g id="content" transform="translate(410.000000, 206.000000)">
                <g id="Group-2">
                    <g id="Group" transform="translate(207.670455, 0.500000)">
                        <path d="M272.727273,13.0454545 C279.317034,13.0454545 284.659091,18.3875115 284.659091,24.9772727 C284.659091,31.5670339 279.317034,36.9090909 272.727273,36.9090909 L204.545455,36.9090909 C211.135216,36.9090909 216.477273,42.2511479 216.477273,48.8409091 C216.477273,55.4306703 211.135216,60.7727273 204.545455,60.7727273 L242.045455,60.7727273 C248.635216,60.7727273 253.977273,66.1147842 253.977273,72.7045455 C253.977273,79.2943067 248.635216,84.6363636 242.045455,84.6363636 L224.703557,84.6363636 C216.394728,84.6363636 209.659091,89.9784206 209.659091,96.5681818 C209.659091,100.961356 213.068182,104.938629 219.886364,108.5 C226.476125,108.5 231.818182,113.842057 231.818182,120.431818 C231.818182,127.021579 226.476125,132.363636 219.886364,132.363636 L78.4090909,132.363636 C71.8193297,132.363636 66.4772727,127.021579 66.4772727,120.431818 C66.4772727,113.842057 71.8193297,108.5 78.4090909,108.5 L11.9318182,108.5 C5.34205696,108.5 0,103.157943 0,96.5681818 C0,89.9784206 5.34205696,84.6363636 11.9318182,84.6363636 L80.1136364,84.6363636 C86.7033976,84.6363636 92.0454545,79.2943067 92.0454545,72.7045455 C92.0454545,66.1147842 86.7033976,60.7727273 80.1136364,60.7727273 L37.5,60.7727273 C30.9102388,60.7727273 25.5681818,55.4306703 25.5681818,48.8409091 C25.5681818,42.2511479 30.9102388,36.9090909 37.5,36.9090909 L105.681818,36.9090909 C99.092057,36.9090909 93.75,31.5670339 93.75,24.9772727 C93.75,18.3875115 99.092057,13.0454545 105.681818,13.0454545 L272.727273,13.0454545 Z M272.727273,60.7727273 C279.317034,60.7727273 284.659091,66.1147842 284.659091,72.7045455 C284.659091,79.2943067 279.317034,84.6363636 272.727273,84.6363636 C266.137512,84.6363636 260.795455,79.2943067 260.795455,72.7045455 C260.795455,66.1147842 266.137512,60.7727273 272.727273,60.7727273 Z" id="Background" fill-opacity="0.1" fill="#4D4D4D"></path>
                        <g transform="translate(60.898990, 0.500000)" id="Group-3">
                            <g transform="translate(0.000000, 0.657283)">
                                <path d="M81.4206295,140.974592 C114.311375,140.974592 140.974592,114.311375 140.974592,81.4206295 C140.974592,48.529884 114.311375,21.8666667 81.4206295,21.8666667 C64.7837089,21.8666667 49.7401491,28.6886556 38.9347146,39.6878691 C28.3780951,50.4338054 21.8666667,65.1668047 21.8666667,81.4206295 C21.8666667,97.9394261 28.5921257,112.887408 39.4542148,123.675745 C50.2197428,134.368177 65.0486807,140.974592 81.4206295,140.974592 Z" id="Combined-Shape" fill="#FFFFFF" transform="translate(81.420630, 81.420630) rotate(119.000000) translate(-81.420630, -81.420630) "></path>
                                <path d="M81.4206295,140.974592 C114.311375,140.974592 140.974592,114.311375 140.974592,81.4206295 C140.974592,48.529884 114.311375,21.8666667 81.4206295,21.8666667 C64.7837089,21.8666667 49.7401491,28.6886556 38.9347146,39.6878691 C28.3780951,50.4338054 21.8666667,65.1668047 21.8666667,81.4206295 C21.8666667,97.9394261 28.5921257,112.887408 39.4542148,123.675745" id="Combined-Shape" stroke="#4D4D4D" stroke-width="3" transform="translate(81.420630, 81.420630) rotate(119.000000) translate(-81.420630, -81.420630) "></path>
                                <path d="M24.2425162,48.6588029 C25.1860026,48.6588029 25.9508495,49.4236498 25.9508495,50.3671362 L25.9508495,60.3526201 C25.9508495,61.2961066 25.1860026,62.0609535 24.2425162,62.0609535 C23.2990297,62.0609535 22.5341828,61.2961066 22.5341828,60.3526201 L22.5341828,50.3671362 C22.5341828,49.4236498 23.2990297,48.6588029 24.2425162,48.6588029 Z" id="Rectangle" fill="#4D4D4D" transform="translate(24.242516, 55.359878) rotate(64.000000) translate(-24.242516, -55.359878) "></path>
                                <path d="M30.898204,51.5775459 C31.8416905,51.5775459 32.6065373,52.3423928 32.6065373,53.2858792 L32.6065373,63.2713631 C32.6065373,64.2148496 31.8416905,64.9796965 30.898204,64.9796965 C29.9547176,64.9796965 29.1898707,64.2148496 29.1898707,63.2713631 L29.1898707,53.2858792 C29.1898707,52.3423928 29.9547176,51.5775459 30.898204,51.5775459 Z" id="Rectangle" fill="#4D4D4D" transform="translate(30.898204, 58.278621) scale(-1, 1) rotate(16.000000) translate(-30.898204, -58.278621) "></path>
                                <rect id="Rectangle" fill="#4D4D4D" x="80.4266901" y="28.6218964" width="3.41666667" height="11.4142717" rx="1.70833333"></rect>
                                <rect id="Rectangle" fill="#4D4D4D" x="80.4266901" y="49.488563" width="3.41666667" height="33.2809384" rx="1.70833333"></rect>
                                <path d="M92.2013278,70.1426236 C93.1448143,70.1426236 93.9096611,70.9074705 93.9096611,71.850957 L93.9096611,91.7758348 C93.9096611,92.7193213 93.1448143,93.4841681 92.2013278,93.4841681 C91.2578414,93.4841681 90.4929945,92.7193213 90.4929945,91.7758348 L90.4929945,71.850957 C90.4929945,70.9074705 91.2578414,70.1426236 92.2013278,70.1426236 Z" id="Rectangle" fill="#4D4D4D" transform="translate(92.201328, 81.813396) rotate(90.000000) translate(-92.201328, -81.813396) "></path>
                                <rect id="Rectangle" fill="#4D4D4D" x="80.4266901" y="123.590624" width="3.41666667" height="11.4142717" rx="1.70833333"></rect>
                                <path d="M34.4319932,76.10626 C35.3754796,76.10626 36.1403265,76.8711069 36.1403265,77.8145934 L36.1403265,85.8121984 C36.1403265,86.7556849 35.3754796,87.5205318 34.4319932,87.5205318 C33.4885067,87.5205318 32.7236598,86.7556849 32.7236598,85.8121984 L32.7236598,77.8145934 C32.7236598,76.8711069 33.4885067,76.10626 34.4319932,76.10626 Z" id="Rectangle" fill="#4D4D4D" transform="translate(34.431993, 81.813396) rotate(90.000000) translate(-34.431993, -81.813396) "></path>
                                <path d="M129.838054,76.10626 C130.78154,76.10626 131.546387,76.8711069 131.546387,77.8145934 L131.546387,85.8121984 C131.546387,86.7556849 130.78154,87.5205318 129.838054,87.5205318 C128.894567,87.5205318 128.12972,86.7556849 128.12972,85.8121984 L128.12972,77.8145934 C128.12972,76.8711069 128.894567,76.10626 129.838054,76.10626 Z" id="Rectangle" fill="#4D4D4D" transform="translate(129.838054, 81.813396) rotate(90.000000) translate(-129.838054, -81.813396) "></path>
                            </g>
                        </g>
                    </g>
                </g>
            </g>
        </g>
    </g>
</svg>