<?xml version="1.0" encoding="UTF-8"?>
<svg width="19px" height="20px" viewBox="0 0 19 20" version="1.1" xmlns="http://www.w3.org/2000/svg" xmlns:xlink="http://www.w3.org/1999/xlink">
    <!-- Generator: Sketch 64 (93537) - https://sketch.com -->
    <title>sort-descending-interface-symbol</title>
    <desc>Created with Sketch.</desc>
    <g id="Page-1" stroke="none" stroke-width="1" fill="none" fill-rule="evenodd">
        <g id="workspace--items" transform="translate(-336.000000, -483.000000)" fill="#4D4D4D" fill-rule="nonzero">
            <g id="Group-5" transform="translate(282.000000, 478.000000)">
                <g id="sort-descending-interface-symbol" transform="translate(54.000000, 5.000000)">
                    <path d="M3.7595,16.003 L4.8535,15.999 L2.44,19.746 L0.005,16.0135 L1.116,16.0105 L1.1415,0 L3.787,0.004 L3.7595,16.003 Z M5.299,12.4805 L5.299,15.125 L18.7415,15.125 L18.7415,12.4805 L5.299,12.4805 Z M15.6555,8.331 L5.299,8.331 L5.299,10.975 L15.6555,10.975 L15.6555,8.331 Z M11.4695,4.1805 L5.299,4.1805 L5.299,6.825 L11.47,6.825 L11.47,4.1805 L11.4695,4.1805 Z M8.7165,0.03 L5.299,0.03 L5.299,2.6745 L8.7165,2.6745 L8.7165,0.03 Z" id="Shape"></path>
                </g>
            </g>
        </g>
    </g>
</svg>